Banjaara - Song - Ek Tha Tiger 720p HD {ECS}
 
http://i1271.photobucket.com/albums/jj629/sameer_ecs/EK-THA-TIGER.jpg


General
Complete name                  : Banjaara - Song - Ek Tha Tiger 720p HD {ECS}.mp4
Format                         : MPEG-4
Format profile                 : Base Media
Codec ID                       : isom
File size                      : 30.1 MiB
Duration                       : 2mn 5s
Overall bit rate mode          : Variable
Overall bit rate               : 2 017 Kbps
Encoded date                   : UTC 2012-07-23 14:22:18
Tagged date                    : UTC 2012-07-23 14:22:18

Video
ID                             : 1
Format                         : AVC
Format/Info                    : Advanced Video Codec
Format profile                 : High@L4.1
Format settings, CABAC         : Yes
Format settings, ReFrames      : 3 frames
Codec ID                       : avc1
Codec ID/Info                  : Advanced Video Coding
Duration                       : 2mn 5s
Bit rate mode                  : Variable
Bit rate                       : 1 881 Kbps
Maximum bit rate               : 14.0 Mbps
Width                          : 1 280 pixels
Height                         : 544 pixels
Display aspect ratio           : 2.35:1
Frame rate mode                : Constant
Frame rate                     : 24.000 fps
Color space                    : YUV
Chroma subsampling             : 4:2:0
Bit depth                      : 8 bits
Scan type                      : Progressive
Bits/(Pixel*Frame)             : 0.113
Stream size                    : 28.1 MiB (94%)
Writing library                : x264 core 125 r2200 999b753

Audio
ID                             : 2
Format                         : AC-3
Format/Info                    : Audio Coding 3
Mode extension                 : CM (complete main)
Format settings, Endianness    : Big
Codec ID                       : ac-3
Duration                       : 2mn 5s
Bit rate mode                  : Constant
Bit rate                       : 128 Kbps
Channel(s)                     : 2 channels
Channel positions              : Front: L R
Sampling rate                  : 44.1 KHz
Bit depth                      : 16 bits
Compression mode               : Lossy
Stream size                    : 1.91 MiB (6%)


[img]http://i1271.photobucket.com/albums/jj629/sameer_ecs/Banjaara-Song-EkThaTiger720pHDECSmp4_thumbs_20120723_195509.jpg[/img]

Give feedback & Do comment ....!

[b]Download enjoy and share the happiness to others by seeding[/b]
[img]http://www.naturalbd.com/torrentimg/s3733766a37d1c091b59c253e8e582e8e293074d38.gif[/img]

